<svg xmlns="http://www.w3.org/2000/svg" xmlns:xlink="http://www.w3.org/1999/xlink" width="84" zoomAndPan="magnify" viewBox="0 0 63 30.000001" height="40" preserveAspectRatio="xMidYMid meet" version="1.0"><defs><g/><clipPath id="4abbf85e7d"><path d="M 1.015625 0 L 61.984375 0 L 61.984375 29.03125 L 1.015625 29.03125 Z M 1.015625 0 " clip-rule="nonzero"/></clipPath></defs><g clip-path="url(#4abbf85e7d)"><path fill="#ffffff" d="M 1.015625 0 L 61.984375 0 L 61.984375 29.03125 L 1.015625 29.03125 Z M 1.015625 0 " fill-opacity="1" fill-rule="nonzero"/><path fill="#ffffff" d="M 1.015625 0 L 61.984375 0 L 61.984375 29.03125 L 1.015625 29.03125 Z M 1.015625 0 " fill-opacity="1" fill-rule="nonzero"/></g><g fill="#231f20" fill-opacity="1"><g transform="translate(2.30903, 20.986209)"><g><path d="M 11.171875 -2.90625 C 11.035156 -2.550781 10.847656 -2.195312 10.609375 -1.84375 C 10.367188 -1.488281 10.082031 -1.179688 9.75 -0.921875 C 9.207031 -0.515625 8.570312 -0.253906 7.84375 -0.140625 C 7.125 -0.0234375 6.445312 -0.0234375 5.8125 -0.140625 C 5.175781 -0.253906 4.664062 -0.398438 4.28125 -0.578125 C 4.101562 -0.640625 3.957031 -0.765625 3.84375 -0.953125 C 3.738281 -1.140625 3.710938 -1.375 3.765625 -1.65625 C 3.816406 -1.945312 3.929688 -2.1875 4.109375 -2.375 C 4.222656 -2.488281 4.351562 -2.554688 4.5 -2.578125 C 4.65625 -2.609375 4.804688 -2.597656 4.953125 -2.546875 C 5.546875 -2.316406 6.179688 -2.179688 6.859375 -2.140625 C 7.546875 -2.109375 8.09375 -2.242188 8.5 -2.546875 C 8.675781 -2.679688 8.835938 -2.867188 8.984375 -3.109375 C 9.128906 -3.359375 9.242188 -3.609375 9.328125 -3.859375 C 9.492188 -4.378906 9.578125 -5.203125 9.578125 -6.328125 C 9.585938 -7.460938 9.515625 -8.300781 9.359375 -8.84375 C 9.179688 -9.488281 8.863281 -9.992188 8.40625 -10.359375 C 7.957031 -10.734375 7.40625 -10.941406 6.75 -10.984375 C 6.351562 -11.023438 5.828125 -10.984375 5.171875 -10.859375 C 4.515625 -10.734375 3.960938 -10.546875 3.515625 -10.296875 C 3.117188 -6.609375 3.113281 -3.515625 3.5 -1.015625 C 3.519531 -0.828125 3.476562 -0.65625 3.375 -0.5 C 3.28125 -0.351562 3.125 -0.234375 2.90625 -0.140625 C 2.695312 -0.046875 2.457031 -0.0195312 2.1875 -0.0625 C 1.925781 -0.113281 1.738281 -0.21875 1.625 -0.375 C 1.519531 -0.53125 1.457031 -0.679688 1.4375 -0.828125 C 1.082031 -3.078125 1.0625 -5.914062 1.375 -9.34375 C 1.101562 -9.394531 0.878906 -9.570312 0.703125 -9.875 C 0.523438 -10.175781 0.457031 -10.445312 0.5 -10.6875 C 0.550781 -10.925781 0.65625 -11.09375 0.8125 -11.1875 C 1.414062 -11.582031 2.0625 -11.929688 2.75 -12.234375 C 3.4375 -12.535156 4.140625 -12.753906 4.859375 -12.890625 C 5.578125 -13.035156 6.296875 -13.070312 7.015625 -13 C 7.742188 -12.9375 8.421875 -12.742188 9.046875 -12.421875 C 9.742188 -12.054688 10.34375 -11.472656 10.84375 -10.671875 C 11.164062 -10.148438 11.398438 -9.382812 11.546875 -8.375 C 11.691406 -7.375 11.71875 -6.351562 11.625 -5.3125 C 11.539062 -4.269531 11.390625 -3.46875 11.171875 -2.90625 Z M 11.171875 -2.90625 "/></g></g></g><g fill="#231f20" fill-opacity="1"><g transform="translate(14.661927, 20.986209)"><g><path d="M 9.84375 -0.5625 C 9.863281 -0.425781 9.835938 -0.296875 9.765625 -0.171875 C 9.691406 -0.046875 9.59375 0.0546875 9.46875 0.140625 C 9.289062 0.234375 9.078125 0.28125 8.828125 0.28125 C 8.585938 0.289062 8.394531 0.242188 8.25 0.140625 C 8.101562 0.0351562 8.003906 -0.0820312 7.953125 -0.21875 C 7.847656 -0.59375 7.757812 -1.070312 7.6875 -1.65625 C 6.96875 -0.894531 6.160156 -0.410156 5.265625 -0.203125 C 4.671875 -0.0664062 4.085938 -0.0546875 3.515625 -0.171875 C 2.941406 -0.296875 2.429688 -0.546875 1.984375 -0.921875 C 1.242188 -1.535156 0.78125 -2.335938 0.59375 -3.328125 C 0.457031 -4.023438 0.421875 -4.726562 0.484375 -5.4375 C 0.554688 -6.15625 0.734375 -6.8125 1.015625 -7.40625 C 1.242188 -7.914062 1.5625 -8.378906 1.96875 -8.796875 C 2.382812 -9.210938 2.835938 -9.523438 3.328125 -9.734375 C 3.765625 -9.910156 4.234375 -10.007812 4.734375 -10.03125 C 5.242188 -10.0625 5.722656 -10.019531 6.171875 -9.90625 C 6.554688 -9.8125 6.96875 -9.628906 7.40625 -9.359375 C 7.84375 -9.097656 8.175781 -8.832031 8.40625 -8.5625 C 8.507812 -8.445312 8.566406 -8.285156 8.578125 -8.078125 C 8.585938 -7.878906 8.519531 -7.65625 8.375 -7.40625 C 8.226562 -7.164062 8.054688 -7.007812 7.859375 -6.9375 C 7.734375 -6.882812 7.597656 -6.867188 7.453125 -6.890625 C 7.316406 -6.921875 7.207031 -6.976562 7.125 -7.0625 C 6.925781 -7.257812 6.675781 -7.441406 6.375 -7.609375 C 6.070312 -7.785156 5.789062 -7.898438 5.53125 -7.953125 C 4.945312 -8.066406 4.441406 -8.019531 4.015625 -7.8125 C 3.429688 -7.519531 3.007812 -7.046875 2.75 -6.390625 C 2.488281 -5.734375 2.398438 -4.910156 2.484375 -3.921875 C 2.515625 -3.671875 2.59375 -3.410156 2.71875 -3.140625 C 2.851562 -2.878906 3.015625 -2.675781 3.203125 -2.53125 C 3.410156 -2.34375 3.65625 -2.222656 3.9375 -2.171875 C 4.21875 -2.117188 4.503906 -2.117188 4.796875 -2.171875 C 5.304688 -2.273438 5.796875 -2.523438 6.265625 -2.921875 C 6.566406 -3.203125 6.820312 -3.5625 7.03125 -4 C 7.25 -4.4375 7.410156 -5.085938 7.515625 -5.953125 C 7.546875 -6.128906 7.617188 -6.285156 7.734375 -6.421875 C 7.847656 -6.554688 7.984375 -6.648438 8.140625 -6.703125 C 8.285156 -6.742188 8.457031 -6.75 8.65625 -6.71875 C 8.863281 -6.695312 9.046875 -6.597656 9.203125 -6.421875 C 9.359375 -6.242188 9.429688 -6.023438 9.421875 -5.765625 C 9.367188 -4.410156 9.507812 -2.675781 9.84375 -0.5625 Z M 9.84375 -0.5625 "/></g></g></g><g fill="#231f20" fill-opacity="1"><g transform="translate(24.927964, 20.986209)"><g><path d="M 9.109375 -7.21875 C 9.273438 -6.363281 9.296875 -5.285156 9.171875 -3.984375 C 9.046875 -2.679688 8.84375 -1.570312 8.5625 -0.65625 C 8.507812 -0.46875 8.382812 -0.3125 8.1875 -0.1875 C 8 -0.0625 7.753906 -0.0195312 7.453125 -0.0625 C 7.160156 -0.101562 6.929688 -0.222656 6.765625 -0.421875 C 6.679688 -0.515625 6.625 -0.632812 6.59375 -0.78125 C 6.5625 -0.9375 6.5625 -1.070312 6.59375 -1.1875 C 7.15625 -3.113281 7.332031 -4.953125 7.125 -6.703125 C 7.050781 -7.222656 6.820312 -7.613281 6.4375 -7.875 C 6.0625 -8.132812 5.609375 -8.21875 5.078125 -8.125 C 4.628906 -8.050781 4.179688 -7.878906 3.734375 -7.609375 C 3.285156 -7.335938 2.894531 -7.015625 2.5625 -6.640625 C 2.550781 -4.847656 2.726562 -3.03125 3.09375 -1.1875 C 3.113281 -1.070312 3.101562 -0.925781 3.0625 -0.75 C 3.019531 -0.570312 2.882812 -0.421875 2.65625 -0.296875 C 2.4375 -0.179688 2.210938 -0.128906 1.984375 -0.140625 C 1.765625 -0.160156 1.582031 -0.222656 1.4375 -0.328125 C 1.300781 -0.429688 1.207031 -0.570312 1.15625 -0.75 C 0.59375 -3.15625 0.40625 -6.007812 0.59375 -9.3125 C 0.601562 -9.59375 0.71875 -9.8125 0.9375 -9.96875 C 1.164062 -10.125 1.425781 -10.175781 1.71875 -10.125 C 2.007812 -10.082031 2.222656 -9.988281 2.359375 -9.84375 C 2.492188 -9.695312 2.566406 -9.539062 2.578125 -9.375 L 2.578125 -9.140625 C 2.710938 -9.222656 2.976562 -9.367188 3.375 -9.578125 C 3.78125 -9.796875 4.238281 -9.953125 4.75 -10.046875 C 5.269531 -10.140625 5.726562 -10.160156 6.125 -10.109375 C 6.53125 -10.054688 6.863281 -9.96875 7.125 -9.84375 C 7.394531 -9.71875 7.625 -9.585938 7.8125 -9.453125 C 8.46875 -8.960938 8.898438 -8.21875 9.109375 -7.21875 Z M 9.109375 -7.21875 "/></g></g></g><g fill="#231f20" fill-opacity="1"><g transform="translate(34.655449, 20.986209)"><g><path d="M 10.578125 -2.625 C 10.742188 -2.4375 10.832031 -2.207031 10.84375 -1.9375 C 10.851562 -1.664062 10.789062 -1.445312 10.65625 -1.28125 C 10.53125 -1.113281 10.390625 -1 10.234375 -0.9375 C 9.710938 -0.75 9.019531 -0.554688 8.15625 -0.359375 C 7.300781 -0.171875 6.363281 -0.078125 5.34375 -0.078125 C 4.320312 -0.078125 3.414062 -0.226562 2.625 -0.53125 C 2.195312 -0.695312 1.800781 -0.953125 1.4375 -1.296875 C 1.070312 -1.640625 0.832031 -2.019531 0.71875 -2.4375 C 0.46875 -3.382812 0.660156 -4.269531 1.296875 -5.09375 C 1.878906 -5.84375 2.582031 -6.566406 3.40625 -7.265625 C 4.238281 -7.972656 5.046875 -8.570312 5.828125 -9.0625 C 6.609375 -9.5625 7.289062 -9.972656 7.875 -10.296875 C 7.96875 -10.335938 8.023438 -10.398438 8.046875 -10.484375 C 8.078125 -10.578125 8.046875 -10.664062 7.953125 -10.75 C 7.867188 -10.84375 7.765625 -10.894531 7.640625 -10.90625 C 7.148438 -10.945312 6.539062 -10.957031 5.8125 -10.9375 C 5.09375 -10.914062 4.320312 -10.84375 3.5 -10.71875 C 2.675781 -10.59375 1.988281 -10.445312 1.4375 -10.28125 C 1.300781 -10.25 1.148438 -10.257812 0.984375 -10.3125 C 0.816406 -10.375 0.691406 -10.453125 0.609375 -10.546875 C 0.378906 -10.828125 0.28125 -11.164062 0.3125 -11.5625 C 0.332031 -11.71875 0.398438 -11.863281 0.515625 -12 C 0.640625 -12.144531 0.773438 -12.238281 0.921875 -12.28125 C 2.023438 -12.632812 3.304688 -12.867188 4.765625 -12.984375 C 6.234375 -13.097656 7.472656 -13.046875 8.484375 -12.828125 C 8.753906 -12.765625 9.035156 -12.644531 9.328125 -12.46875 C 9.617188 -12.289062 9.851562 -12.085938 10.03125 -11.859375 C 10.238281 -11.585938 10.367188 -11.28125 10.421875 -10.9375 C 10.484375 -10.59375 10.457031 -10.25 10.34375 -9.90625 C 10.164062 -9.382812 9.726562 -8.929688 9.03125 -8.546875 C 8.207031 -8.085938 7.382812 -7.578125 6.5625 -7.015625 C 5.738281 -6.460938 5.023438 -5.910156 4.421875 -5.359375 C 3.816406 -4.804688 3.332031 -4.28125 2.96875 -3.78125 C 2.789062 -3.550781 2.71875 -3.332031 2.75 -3.125 C 2.78125 -2.914062 2.894531 -2.722656 3.09375 -2.546875 C 3.300781 -2.367188 3.554688 -2.25 3.859375 -2.1875 C 4.441406 -2.070312 5.128906 -2.050781 5.921875 -2.125 C 6.722656 -2.195312 7.453125 -2.3125 8.109375 -2.46875 C 8.765625 -2.632812 9.285156 -2.789062 9.671875 -2.9375 C 9.835938 -3 10.003906 -2.992188 10.171875 -2.921875 C 10.347656 -2.847656 10.484375 -2.75 10.578125 -2.625 Z M 10.578125 -2.625 "/></g></g></g><g fill="#231f20" fill-opacity="1"><g transform="translate(45.796616, 20.986209)"><g><path d="M 9.84375 -0.5625 C 9.863281 -0.425781 9.835938 -0.296875 9.765625 -0.171875 C 9.691406 -0.046875 9.59375 0.0546875 9.46875 0.140625 C 9.289062 0.234375 9.078125 0.28125 8.828125 0.28125 C 8.585938 0.289062 8.394531 0.242188 8.25 0.140625 C 8.101562 0.0351562 8.003906 -0.0820312 7.953125 -0.21875 C 7.847656 -0.59375 7.757812 -1.070312 7.6875 -1.65625 C 6.96875 -0.894531 6.160156 -0.410156 5.265625 -0.203125 C 4.671875 -0.0664062 4.085938 -0.0546875 3.515625 -0.171875 C 2.941406 -0.296875 2.429688 -0.546875 1.984375 -0.921875 C 1.242188 -1.535156 0.78125 -2.335938 0.59375 -3.328125 C 0.457031 -4.023438 0.421875 -4.726562 0.484375 -5.4375 C 0.554688 -6.15625 0.734375 -6.8125 1.015625 -7.40625 C 1.242188 -7.914062 1.5625 -8.378906 1.96875 -8.796875 C 2.382812 -9.210938 2.835938 -9.523438 3.328125 -9.734375 C 3.765625 -9.910156 4.234375 -10.007812 4.734375 -10.03125 C 5.242188 -10.0625 5.722656 -10.019531 6.171875 -9.90625 C 6.554688 -9.8125 6.96875 -9.628906 7.40625 -9.359375 C 7.84375 -9.097656 8.175781 -8.832031 8.40625 -8.5625 C 8.507812 -8.445312 8.566406 -8.285156 8.578125 -8.078125 C 8.585938 -7.878906 8.519531 -7.65625 8.375 -7.40625 C 8.226562 -7.164062 8.054688 -7.007812 7.859375 -6.9375 C 7.734375 -6.882812 7.597656 -6.867188 7.453125 -6.890625 C 7.316406 -6.921875 7.207031 -6.976562 7.125 -7.0625 C 6.925781 -7.257812 6.675781 -7.441406 6.375 -7.609375 C 6.070312 -7.785156 5.789062 -7.898438 5.53125 -7.953125 C 4.945312 -8.066406 4.441406 -8.019531 4.015625 -7.8125 C 3.429688 -7.519531 3.007812 -7.046875 2.75 -6.390625 C 2.488281 -5.734375 2.398438 -4.910156 2.484375 -3.921875 C 2.515625 -3.671875 2.59375 -3.410156 2.71875 -3.140625 C 2.851562 -2.878906 3.015625 -2.675781 3.203125 -2.53125 C 3.410156 -2.34375 3.65625 -2.222656 3.9375 -2.171875 C 4.21875 -2.117188 4.503906 -2.117188 4.796875 -2.171875 C 5.304688 -2.273438 5.796875 -2.523438 6.265625 -2.921875 C 6.566406 -3.203125 6.820312 -3.5625 7.03125 -4 C 7.25 -4.4375 7.410156 -5.085938 7.515625 -5.953125 C 7.546875 -6.128906 7.617188 -6.285156 7.734375 -6.421875 C 7.847656 -6.554688 7.984375 -6.648438 8.140625 -6.703125 C 8.285156 -6.742188 8.457031 -6.75 8.65625 -6.71875 C 8.863281 -6.695312 9.046875 -6.597656 9.203125 -6.421875 C 9.359375 -6.242188 9.429688 -6.023438 9.421875 -5.765625 C 9.367188 -4.410156 9.507812 -2.675781 9.84375 -0.5625 Z M 9.84375 -0.5625 "/></g></g></g><g fill="#231f20" fill-opacity="1"><g transform="translate(56.062653, 20.986209)"><g><path d="M 3.9375 -10.921875 C 3.84375 -10.816406 3.734375 -10.738281 3.609375 -10.6875 C 3.484375 -10.644531 3.359375 -10.644531 3.234375 -10.6875 C 2.640625 -10.875 1.90625 -11.035156 1.03125 -11.171875 C 0.769531 -11.203125 0.585938 -11.34375 0.484375 -11.59375 C 0.390625 -11.84375 0.363281 -12.085938 0.40625 -12.328125 C 0.457031 -12.566406 0.523438 -12.742188 0.609375 -12.859375 C 0.679688 -12.972656 0.785156 -13.0625 0.921875 -13.125 C 1.066406 -13.195312 1.21875 -13.222656 1.375 -13.203125 C 1.75 -13.191406 2.191406 -13.125 2.703125 -13 C 3.210938 -12.882812 3.609375 -12.734375 3.890625 -12.546875 C 4.003906 -12.484375 4.097656 -12.363281 4.171875 -12.1875 C 4.242188 -12.007812 4.253906 -11.789062 4.203125 -11.53125 C 4.148438 -11.28125 4.0625 -11.078125 3.9375 -10.921875 Z M 3.625 -1.03125 C 3.632812 -0.9375 3.628906 -0.820312 3.609375 -0.6875 C 3.585938 -0.5625 3.523438 -0.453125 3.421875 -0.359375 C 3.328125 -0.265625 3.253906 -0.203125 3.203125 -0.171875 C 3.078125 -0.0976562 2.914062 -0.0507812 2.71875 -0.03125 C 2.519531 -0.0078125 2.347656 -0.015625 2.203125 -0.046875 C 2.046875 -0.078125 1.90625 -0.15625 1.78125 -0.28125 C 1.664062 -0.414062 1.59375 -0.570312 1.5625 -0.75 C 1.382812 -1.90625 1.273438 -3.316406 1.234375 -4.984375 C 1.191406 -6.660156 1.226562 -8.101562 1.34375 -9.3125 C 1.363281 -9.519531 1.453125 -9.695312 1.609375 -9.84375 C 1.765625 -10 1.960938 -10.082031 2.203125 -10.09375 C 2.441406 -10.113281 2.648438 -10.082031 2.828125 -10 C 3.003906 -9.925781 3.148438 -9.8125 3.265625 -9.65625 C 3.378906 -9.507812 3.429688 -9.34375 3.421875 -9.15625 C 3.203125 -6.007812 3.269531 -3.300781 3.625 -1.03125 Z M 3.625 -1.03125 "/></g></g></g></svg>