<svg width="85" height="37" viewBox="0 0 85 37" fill="none" xmlns="http://www.w3.org/2000/svg">
<g clip-path="url(#clip0_8223_61343)">
<g clip-path="url(#clip1_8223_61343)">
<path d="M74.2942 17.5886L74.2571 17.6258C74.5173 16.9196 75.0376 16.6594 75.4836 16.6594C76.1155 16.6594 76.673 17.1426 76.673 17.8488C76.673 17.9975 76.673 18.1833 76.5987 18.4063C75.2978 21.7515 72.5473 23.4612 69.8712 23.7214C68.6447 25.8028 66.6376 27.3267 63.7756 27.3267C59.6871 27.3267 57.8659 24.0931 57.8659 20.5621C57.8659 16.2134 60.6164 11.3815 65.2252 11.3815C66.2287 11.3815 67.0836 11.6046 67.7898 11.9019C69.8712 12.6824 71.2093 15.3957 71.2093 18.2948C71.2093 19.224 71.1349 20.1532 70.9119 21.0453C72.2872 20.5621 73.588 19.447 74.2942 17.5886ZM66.5261 14.4293V14.3922C65.7084 14.3922 65.2252 15.47 65.2252 16.7709C65.2252 18.6665 66.2659 20.4134 67.9013 21.0453C68.1615 20.2276 68.273 19.2984 68.273 18.2205C68.273 16.1391 67.6411 14.4293 66.5261 14.4293ZM63.8128 24.6134C64.8535 24.6134 65.8942 24.1674 66.7119 23.2382C64.296 22.1603 62.7721 19.6329 62.7721 17.2169C62.7721 16.3992 62.9208 15.5444 63.1438 14.801C61.6571 16.0276 60.8022 18.4435 60.8022 20.5621C60.8022 23.3125 62.1031 24.6134 63.8128 24.6134Z" fill="#090705"/>
<path d="M58.4398 17.5886L58.4026 17.6258C58.6628 16.9196 59.1088 16.6223 59.5548 16.6223C60.1867 16.6223 60.8185 17.1798 60.8185 17.886C60.8185 18.0718 60.7814 18.2205 60.707 18.4063C59.2575 21.9373 57.1017 26.063 53.6451 28.4789L53.5708 29.2223C53.1619 33.6825 50.8947 36.5072 48.0327 36.5072C45.8769 36.5072 44.6132 35.0205 44.6132 33.2736C44.6132 30.1143 47.8468 28.9621 50.8575 27.0294C50.9318 26.2488 50.969 25.3568 51.0061 24.3532C49.5194 25.9886 47.9212 26.6577 46.5088 26.6577C43.684 26.6577 41.3796 24.3532 41.3796 20.8223C41.3796 15.3957 44.9477 11.8276 48.9247 11.8276H48.9619C51.6752 11.8276 54.5743 13.2771 54.5743 15.8789C54.5743 16.7338 54.2026 21.3798 53.9053 24.9851C55.9123 23.0895 57.5849 20.0046 58.4398 17.5886ZM46.9176 23.9816C48.2929 23.9816 50.1513 23.1267 51.3035 18.9267C51.4893 17.9975 51.6008 17.1798 51.5637 16.2134C51.3407 15.2099 50.4858 14.6152 49.2592 14.6152C46.7318 14.6152 44.3159 17.0311 44.3159 20.7108C44.3159 22.9409 45.3566 23.9816 46.9176 23.9816ZM48.33 33.794H48.3672C49.1477 33.794 50.0026 33.2736 50.5601 29.9285C48.9247 30.8948 47.4008 31.8612 47.4008 33.0134C47.4008 33.4966 47.7725 33.794 48.33 33.794Z" fill="#090705"/>
<path d="M42.0318 17.5886L41.9947 17.6258C42.2548 16.9196 42.7752 16.6594 43.2212 16.6594C43.8531 16.6594 44.4106 17.1426 44.4106 17.8488C44.4106 17.9975 44.4106 18.1833 44.3363 18.4063C43.0354 21.7515 40.2849 23.4612 37.6088 23.7214C36.3823 25.8028 34.3752 27.3267 31.5132 27.3267C27.4247 27.3267 25.6035 24.0931 25.6035 20.5621C25.6035 16.2134 28.3539 11.3815 32.9628 11.3815C33.9663 11.3815 34.8212 11.6046 35.5274 11.9019C37.6088 12.6824 38.9469 15.3957 38.9469 18.2948C38.9469 19.224 38.8725 20.1532 38.6495 21.0453C40.0248 20.5621 41.3256 19.447 42.0318 17.5886ZM34.2637 14.4293V14.3922C33.446 14.3922 32.9628 15.47 32.9628 16.7709C32.9628 18.6665 34.0035 20.4134 35.6389 21.0453C35.8991 20.2276 36.0106 19.2984 36.0106 18.2205C36.0106 16.1391 35.3787 14.4293 34.2637 14.4293ZM31.5504 24.6134C32.5911 24.6134 33.6318 24.1674 34.4495 23.2382C32.0336 22.1603 30.5097 19.6329 30.5097 17.2169C30.5097 16.3992 30.6584 15.5444 30.8814 14.801C29.3947 16.0276 28.5398 18.4435 28.5398 20.5621C28.5398 23.3125 29.8407 24.6134 31.5504 24.6134Z" fill="#090705"/>
<path d="M27.4925 16.4153C26.9721 16.4153 26.5261 16.6755 26.2287 17.3817C25.2624 19.8348 23.2552 23.9977 21.2109 23.9977C19.9237 23.9977 18.9276 23.7066 17.921 23.4124C16.8931 23.112 15.8543 22.8083 14.4834 22.8083C14.0002 22.8083 13.3312 22.8827 12.6993 22.9942C14.6029 20.3984 15.314 17.2547 16.0031 11.3124C14.7056 11.2298 13.6502 10.9901 12.8809 10.748C12.0593 18.2845 11.1262 21.1581 7.71866 23.9977C7.27263 24.3694 7.04962 24.8898 7.04962 25.4102C7.04962 26.2279 7.75583 26.9341 8.64789 26.9341C8.94524 26.9341 9.27975 26.8226 9.61427 26.6739C11.5099 25.819 12.6621 25.596 14.0745 25.596C14.9727 25.596 16.0475 25.8529 17.1981 26.1278C18.5235 26.4446 19.9496 26.7854 21.3225 26.7854C24.3331 26.7854 26.3031 23.8491 28.496 18.1622C28.6076 17.9764 28.6447 17.7534 28.6447 17.5675C28.6447 16.8613 28.0872 16.4153 27.4925 16.4153Z" fill="#090705"/>
<path fill-rule="evenodd" clip-rule="evenodd" d="M13.0695 9.20995C13.7426 9.44492 14.7934 9.71848 16.1559 9.79941L16.3789 9.7993C20.579 9.7993 23.3295 7.19748 23.3295 4.07529C23.3295 2.06817 21.7684 0.50708 19.5754 0.50708C16.6391 0.50708 14.5948 2.5142 13.5541 6.49127C12.2531 5.78506 11.3611 4.52132 10.9151 2.92306C10.692 2.14251 10.2089 1.65931 9.5398 1.65931C8.72209 1.65931 8.20172 2.29119 8.20172 3.14607C8.20172 5.67356 10.1717 8.08953 13.0709 9.2046L13.0695 9.20995ZM16.6019 7.08597C17.1594 4.52132 18.0515 3.29475 19.2409 3.29475C19.8728 3.29475 20.2816 3.66644 20.2816 4.33548C20.2816 5.56205 18.9807 7.01163 16.6019 7.08597Z" fill="#090705"/>
</g>
</g>
<defs>
<clipPath id="clip0_8223_61343">
<rect width="84" height="36" fill="white" transform="translate(0.382935 0.50708)"/>
</clipPath>
<clipPath id="clip1_8223_61343">
<rect width="70" height="36" fill="white" transform="translate(7.04962 0.50708)"/>
</clipPath>
</defs>
</svg>
