<svg width="85" height="37" viewBox="0 0 85 37" fill="none" xmlns="http://www.w3.org/2000/svg">
<g clip-path="url(#clip0_8223_62221)">
<g clip-path="url(#clip1_8223_62221)">
<path d="M74.2942 17.5884L74.2571 17.6256C74.5173 16.9194 75.0376 16.6592 75.4836 16.6592C76.1155 16.6592 76.673 17.1424 76.673 17.8486C76.673 17.9973 76.673 18.1831 76.5987 18.4061C75.2978 21.7513 72.5473 23.461 69.8712 23.7212C68.6447 25.8026 66.6376 27.3265 63.7756 27.3265C59.6871 27.3265 57.8659 24.0929 57.8659 20.5619C57.8659 16.2132 60.6164 11.3813 65.2252 11.3813C66.2287 11.3813 67.0836 11.6044 67.7898 11.9017C69.8712 12.6822 71.2093 15.3955 71.2093 18.2946C71.2093 19.2238 71.1349 20.153 70.9119 21.0451C72.2872 20.5619 73.588 19.4468 74.2942 17.5884ZM66.5261 14.4291V14.392C65.7084 14.392 65.2252 15.4698 65.2252 16.7707C65.2252 18.6663 66.2659 20.4132 67.9013 21.0451C68.1615 20.2274 68.273 19.2982 68.273 18.2203C68.273 16.1389 67.6411 14.4291 66.5261 14.4291ZM63.8128 24.6132C64.8535 24.6132 65.8942 24.1672 66.7119 23.238C64.296 22.1601 62.7721 19.6327 62.7721 17.2167C62.7721 16.399 62.9208 15.5442 63.1438 14.8008C61.6571 16.0274 60.8022 18.4433 60.8022 20.5619C60.8022 23.3123 62.1031 24.6132 63.8128 24.6132Z" fill="#090705"/>
<path d="M58.4398 17.5881L58.4026 17.6253C58.6628 16.9191 59.1088 16.6218 59.5548 16.6218C60.1867 16.6218 60.8185 17.1793 60.8185 17.8855C60.8185 18.0713 60.7814 18.22 60.707 18.4058C59.2575 21.9368 57.1017 26.0625 53.6451 28.4784L53.5708 29.2218C53.1619 33.682 50.8947 36.5068 48.0327 36.5068C45.8769 36.5068 44.6132 35.0201 44.6132 33.2732C44.6132 30.1138 47.8468 28.9617 50.8575 27.029C50.9318 26.2484 50.969 25.3563 51.0061 24.3527C49.5194 25.9881 47.9212 26.6573 46.5088 26.6573C43.684 26.6573 41.3796 24.3528 41.3796 20.8218C41.3796 15.3952 44.9477 11.8271 48.9247 11.8271H48.9619C51.6752 11.8271 54.5743 13.2766 54.5743 15.8784C54.5743 16.7333 54.2026 21.3793 53.9053 24.9847C55.9123 23.0891 57.5849 20.0041 58.4398 17.5881ZM46.9176 23.9812C48.2929 23.9812 50.1513 23.1262 51.3035 18.9262C51.4893 17.997 51.6008 17.1793 51.5637 16.2129C51.3407 15.2094 50.4858 14.6147 49.2592 14.6147C46.7318 14.6147 44.3159 17.0306 44.3159 20.7103C44.3159 22.9404 45.3566 23.9812 46.9176 23.9812ZM48.33 33.7936H48.3672C49.1477 33.7936 50.0026 33.2731 50.5601 29.928C48.9247 30.8943 47.4008 31.8608 47.4008 33.013C47.4008 33.4962 47.7725 33.7936 48.33 33.7936Z" fill="#090705"/>
<path d="M42.0318 17.5884L41.9947 17.6256C42.2548 16.9194 42.7752 16.6592 43.2212 16.6592C43.8531 16.6592 44.4106 17.1424 44.4106 17.8486C44.4106 17.9973 44.4106 18.1831 44.3363 18.4061C43.0354 21.7513 40.2849 23.461 37.6088 23.7212C36.3823 25.8026 34.3752 27.3265 31.5132 27.3265C27.4247 27.3265 25.6035 24.0929 25.6035 20.5619C25.6035 16.2132 28.3539 11.3813 32.9628 11.3813C33.9663 11.3813 34.8212 11.6044 35.5274 11.9017C37.6088 12.6822 38.9469 15.3955 38.9469 18.2946C38.9469 19.2238 38.8725 20.153 38.6495 21.0451C40.0248 20.5619 41.3256 19.4468 42.0318 17.5884ZM34.2637 14.4291V14.392C33.446 14.392 32.9628 15.4698 32.9628 16.7707C32.9628 18.6663 34.0035 20.4132 35.6389 21.0451C35.8991 20.2274 36.0106 19.2982 36.0106 18.2203C36.0106 16.1389 35.3787 14.4291 34.2637 14.4291ZM31.5504 24.6132C32.5911 24.6132 33.6318 24.1672 34.4495 23.238C32.0336 22.1601 30.5097 19.6327 30.5097 17.2167C30.5097 16.399 30.6584 15.5442 30.8814 14.8008C29.3947 16.0274 28.5398 18.4433 28.5398 20.5619C28.5398 23.3123 29.8407 24.6132 31.5504 24.6132Z" fill="#090705"/>
<path d="M27.4925 16.4153C26.9721 16.4153 26.5261 16.6755 26.2287 17.3817C25.2624 19.8348 23.2552 23.9977 21.2109 23.9977C19.9237 23.9977 18.9276 23.7066 17.921 23.4124C16.8931 23.112 15.8543 22.8083 14.4834 22.8083C14.0002 22.8083 13.3312 22.8827 12.6993 22.9942C14.6029 20.3984 15.314 17.2547 16.0031 11.3124C14.7056 11.2298 13.6502 10.9901 12.8809 10.748C12.0593 18.2845 11.1262 21.1581 7.71866 23.9977C7.27263 24.3694 7.04962 24.8898 7.04962 25.4102C7.04962 26.2279 7.75583 26.9341 8.64789 26.9341C8.94524 26.9341 9.27975 26.8226 9.61427 26.6739C11.5099 25.819 12.6621 25.596 14.0745 25.596C14.9727 25.596 16.0475 25.8529 17.1981 26.1278C18.5235 26.4446 19.9496 26.7854 21.3225 26.7854C24.3331 26.7854 26.3031 23.8491 28.496 18.1622C28.6076 17.9764 28.6447 17.7534 28.6447 17.5675C28.6447 16.8613 28.0872 16.4153 27.4925 16.4153Z" fill="#090705"/>
<path fill-rule="evenodd" clip-rule="evenodd" d="M13.0695 9.20971C13.7426 9.44468 14.7934 9.71824 16.1559 9.79917L16.3789 9.79906C20.579 9.79906 23.3295 7.19724 23.3295 4.07505C23.3295 2.06793 21.7684 0.506836 19.5754 0.506836C16.6391 0.506836 14.5948 2.51396 13.5541 6.49103C12.2531 5.78482 11.3611 4.52108 10.9151 2.92282C10.692 2.14227 10.2089 1.65907 9.5398 1.65907C8.72209 1.65907 8.20172 2.29095 8.20172 3.14583C8.20172 5.67332 10.1717 8.08929 13.0709 9.20436L13.0695 9.20971ZM16.6019 7.08573C17.1594 4.52108 18.0515 3.29451 19.2409 3.29451C19.8728 3.29451 20.2816 3.6662 20.2816 4.33524C20.2816 5.56181 18.9807 7.01139 16.6019 7.08573Z" fill="#090705"/>
</g>
</g>
<defs>
<clipPath id="clip0_8223_62221">
<rect width="84" height="36" fill="white" transform="translate(0.382935 0.506836)"/>
</clipPath>
<clipPath id="clip1_8223_62221">
<rect width="70" height="36" fill="white" transform="translate(7.04962 0.506836)"/>
</clipPath>
</defs>
</svg>
