<svg width="49" height="49" viewBox="0 0 49 49" fill="none" xmlns="http://www.w3.org/2000/svg">
<path fill-rule="evenodd" clip-rule="evenodd" d="M42.1763 14.7471L41.8963 14.2471C41.5351 13.6425 41.0257 13.1399 40.4163 12.7871L26.9963 5.04708C26.3887 4.69458 25.6989 4.50832 24.9963 4.50708H24.4163C23.7137 4.50832 23.0239 4.69458 22.4163 5.04708L8.99631 12.8071C8.39025 13.1576 7.88683 13.661 7.53631 14.2671L7.25631 14.7671C6.90381 15.3748 6.71755 16.0646 6.71631 16.7671V32.2671C6.71755 32.9697 6.90381 33.6595 7.25631 34.2671L7.53631 34.7671C7.89589 35.3661 8.39729 35.8675 8.99631 36.2271L22.4363 43.9671C23.0409 44.3269 23.7327 44.5137 24.4363 44.5071H24.9963C25.6989 44.5059 26.3887 44.3197 26.9963 43.9671L40.4163 36.2071C41.0283 35.8645 41.5337 35.3591 41.8763 34.7471L42.1763 34.2471C42.5245 33.6377 42.7105 32.9491 42.7163 32.2471V16.7471C42.7151 16.0446 42.5289 15.3548 42.1763 14.7471ZM24.4163 8.50708H24.9963L36.7163 15.2671L24.7163 22.1871L12.7163 15.2671L24.4163 8.50708ZM26.7163 39.5071L38.4163 32.7471L38.7163 32.2471V18.7271L26.7163 25.6671V39.5071Z" fill="#090705"/>
</svg>
