<svg width="49" height="49" viewBox="0 0 49 49" fill="none" xmlns="http://www.w3.org/2000/svg">
<path fill-rule="evenodd" clip-rule="evenodd" d="M41.5095 14.7471L41.2295 14.2471C40.8683 13.6425 40.3589 13.1399 39.7495 12.7871L26.3296 5.04708C25.722 4.69458 25.0322 4.50832 24.3296 4.50708H23.7496C23.047 4.50832 22.3572 4.69458 21.7496 5.04708L8.32956 12.8071C7.7235 13.1576 7.22008 13.661 6.86956 14.2671L6.58956 14.7671C6.23706 15.3748 6.0508 16.0646 6.04956 16.7671V32.2671C6.0508 32.9697 6.23706 33.6595 6.58956 34.2671L6.86956 34.7671C7.22914 35.3661 7.73054 35.8675 8.32956 36.2271L21.7696 43.9671C22.3742 44.3269 23.066 44.5137 23.7696 44.5071H24.3296C25.0322 44.5059 25.722 44.3197 26.3296 43.9671L39.7495 36.2071C40.3615 35.8645 40.8669 35.3591 41.2095 34.7471L41.5095 34.2471C41.8577 33.6377 42.0437 32.9491 42.0495 32.2471V16.7471C42.0483 16.0446 41.8621 15.3548 41.5095 14.7471ZM23.7496 8.50708H24.3296L36.0495 15.2671L24.0496 22.1871L12.0496 15.2671L23.7496 8.50708ZM26.0496 39.5071L37.7495 32.7471L38.0495 32.2471V18.7271L26.0496 25.6671V39.5071Z" fill="#090705"/>
</svg>
