<svg width="49" height="48" viewBox="0 0 49 48" fill="none" xmlns="http://www.w3.org/2000/svg">
<path fill-rule="evenodd" clip-rule="evenodd" d="M41.6267 14.24L41.3467 13.74C40.9855 13.1354 40.4761 12.6329 39.8667 12.28L26.4467 4.54C25.8391 4.1875 25.1493 4.00124 24.4467 4H23.8667C23.1641 4.00124 22.4743 4.1875 21.8667 4.54L8.44669 12.3C7.84063 12.6505 7.33721 13.1539 6.98669 13.76L6.70669 14.26C6.35419 14.8677 6.16793 15.5575 6.16669 16.26V31.76C6.16793 32.4626 6.35419 33.1524 6.70669 33.76L6.98669 34.26C7.34627 34.859 7.84767 35.3604 8.44669 35.72L21.8867 43.46C22.4913 43.8198 23.1831 44.0066 23.8867 44H24.4467C25.1493 43.9988 25.8391 43.8126 26.4467 43.46L39.8667 35.7C40.4787 35.3574 40.9841 34.852 41.3267 34.24L41.6267 33.74C41.9749 33.1306 42.1609 32.442 42.1667 31.74V16.24C42.1655 15.5375 41.9793 14.8477 41.6267 14.24ZM23.8667 8H24.4467L36.1667 14.76L24.1667 21.68L12.1667 14.76L23.8667 8ZM26.1667 39L37.8667 32.24L38.1667 31.74V18.22L26.1667 25.16V39Z" fill="#090705"/>
</svg>
