<svg width="49" height="48" viewBox="0 0 49 48" fill="none" xmlns="http://www.w3.org/2000/svg">
<path fill-rule="evenodd" clip-rule="evenodd" d="M42.2933 14.24L42.0133 13.74C41.6521 13.1354 41.1427 12.6329 40.5333 12.28L27.1133 4.54C26.5057 4.1875 25.8159 4.00124 25.1133 4H24.5333C23.8307 4.00124 23.1409 4.1875 22.5333 4.54L9.11334 12.3C8.50728 12.6505 8.00386 13.1539 7.65334 13.76L7.37334 14.26C7.02084 14.8677 6.83458 15.5575 6.83334 16.26V31.76C6.83458 32.4626 7.02084 33.1524 7.37334 33.76L7.65334 34.26C8.01292 34.859 8.51432 35.3604 9.11334 35.72L22.5533 43.46C23.1579 43.8198 23.8497 44.0066 24.5533 44H25.1133C25.8159 43.9988 26.5057 43.8126 27.1133 43.46L40.5333 35.7C41.1453 35.3574 41.6507 34.852 41.9933 34.24L42.2933 33.74C42.6415 33.1306 42.8275 32.442 42.8333 31.74V16.24C42.8321 15.5375 42.6459 14.8477 42.2933 14.24ZM24.5333 8H25.1133L36.8333 14.76L24.8333 21.68L12.8333 14.76L24.5333 8ZM26.8333 39L38.5333 32.24L38.8333 31.74V18.22L26.8333 25.16V39Z" fill="#090705"/>
</svg>
