<svg width="17" height="17" viewBox="0 0 17 17" fill="none" xmlns="http://www.w3.org/2000/svg">
<path fill-rule="evenodd" clip-rule="evenodd" d="M14.2029 5.25366L14.1096 5.087C13.9892 4.88546 13.8194 4.71795 13.6163 4.60033L9.14293 2.02033C8.9404 1.90283 8.71047 1.84075 8.47627 1.84033H8.28293C8.04873 1.84075 7.8188 1.90283 7.61627 2.02033L3.14293 4.607C2.94091 4.72384 2.77311 4.89164 2.65627 5.09366L2.56293 5.26033C2.44543 5.46289 2.38335 5.69282 2.38293 5.927V11.0937C2.38335 11.3279 2.44543 11.5578 2.56293 11.7603L2.65627 11.927C2.77613 12.1267 2.94326 12.2938 3.14293 12.4137L7.62293 14.9937C7.82447 15.1136 8.05507 15.1759 8.2896 15.1737H8.47627C8.71047 15.1733 8.9404 15.1112 9.14293 14.9937L13.6163 12.407C13.8203 12.2928 13.9887 12.1243 14.1029 11.9203L14.2029 11.7537C14.319 11.5505 14.381 11.321 14.3829 11.087V5.92033C14.3825 5.68616 14.3205 5.45622 14.2029 5.25366ZM8.28293 3.17367H8.47627L12.3829 5.427L8.38293 7.73366L4.38293 5.427L8.28293 3.17367ZM9.0496 13.507L12.9496 11.2537L13.0496 11.087V6.58033L9.0496 8.89366V13.507Z" fill="#090705"/>
</svg>
