<svg width="25" height="25" viewBox="0 0 25 25" fill="none" xmlns="http://www.w3.org/2000/svg">
<path d="M21.9759 7.70984C21.862 7.28725 21.6394 6.90185 21.3303 6.59201C21.0211 6.28217 20.6362 6.0587 20.2139 5.94384C18.6479 5.51384 12.3829 5.50684 12.3829 5.50684C12.3829 5.50684 6.1189 5.49984 4.5519 5.91084C4.12982 6.03099 3.74572 6.25762 3.43646 6.56898C3.12721 6.88034 2.90318 7.26596 2.7859 7.68884C2.3729 9.25484 2.3689 12.5028 2.3689 12.5028C2.3689 12.5028 2.3649 15.7668 2.7749 17.3168C3.0049 18.1738 3.6799 18.8508 4.5379 19.0818C6.1199 19.5118 12.3679 19.5188 12.3679 19.5188C12.3679 19.5188 18.6329 19.5258 20.1989 19.1158C20.6214 19.0012 21.0066 18.7782 21.3165 18.469C21.6265 18.1598 21.8503 17.7751 21.9659 17.3528C22.3799 15.7878 22.3829 12.5408 22.3829 12.5408C22.3829 12.5408 22.4029 9.27584 21.9759 7.70984ZM10.3789 15.5118L10.3839 9.51184L15.5909 12.5168L10.3789 15.5118Z" fill="#090705"/>
</svg>
