<svg width="25" height="25" viewBox="0 0 25 25" fill="none" xmlns="http://www.w3.org/2000/svg">
<path fill-rule="evenodd" clip-rule="evenodd" d="M4.88293 3.74951C4.0545 3.74951 3.38293 4.42108 3.38293 5.24951V20.2495C3.38293 21.0779 4.0545 21.7495 4.88293 21.7495H19.8829C20.7113 21.7495 21.3829 21.0779 21.3829 20.2495V5.24951C21.3829 4.42108 20.7113 3.74951 19.8829 3.74951H4.88293ZM8.90369 7.75223C8.90932 8.70848 8.19354 9.2977 7.34416 9.29348C6.544 9.28926 5.8465 8.65223 5.85072 7.75364C5.85494 6.90848 6.52291 6.22926 7.39057 6.24895C8.27088 6.26864 8.90932 6.91411 8.90369 7.75223ZM12.6626 10.5113H10.1426H10.1412V19.0711H12.8046V18.8714C12.8046 18.4915 12.8043 18.1115 12.804 17.7314C12.8032 16.7176 12.8023 15.7027 12.8075 14.6892C12.8089 14.4431 12.8201 14.1872 12.8834 13.9523C13.121 13.0748 13.91 12.5081 14.7903 12.6474C15.3556 12.7359 15.7296 13.0636 15.8871 13.5966C15.9842 13.9298 16.0278 14.2884 16.032 14.6358C16.0434 15.6834 16.0418 16.731 16.0402 17.7787C16.0396 18.1485 16.039 18.5185 16.039 18.8883V19.0697H18.7109V18.8644C18.7109 18.4124 18.7107 17.9605 18.7104 17.5086C18.7099 16.3791 18.7093 15.2496 18.7123 14.1197C18.7137 13.6092 18.6589 13.1058 18.5337 12.6122C18.3467 11.8781 17.96 11.2706 17.3314 10.8319C16.8856 10.5197 16.3962 10.3186 15.8492 10.2961C15.7869 10.2935 15.7241 10.2901 15.661 10.2867C15.3813 10.2716 15.097 10.2562 14.8296 10.3102C14.0646 10.4635 13.3925 10.8136 12.8848 11.4309C12.8258 11.5017 12.7681 11.5736 12.682 11.6809L12.6626 11.7052V10.5113ZM6.06457 19.0739H8.71535V10.5168H6.06457V19.0739Z" fill="#090705"/>
</svg>
