<svg width="25" height="24" viewBox="0 0 25 24" fill="none" xmlns="http://www.w3.org/2000/svg">
<path fill-rule="evenodd" clip-rule="evenodd" d="M12.5 3C7.53145 3 3.5 7.03145 3.5 12C3.5 16.9686 7.53145 21 12.5 21C17.4588 21 21.5 16.9686 21.5 12C21.5 7.03145 17.4588 3 12.5 3ZM18.4447 7.14859C19.5184 8.45662 20.1627 10.1258 20.1822 11.9317C19.9284 11.8829 17.3904 11.3655 14.833 11.6876C14.7744 11.5607 14.7256 11.4241 14.667 11.2874C14.5108 10.9165 14.3352 10.5358 14.1594 10.1746C16.9902 9.0228 18.2787 7.36334 18.4447 7.14859ZM12.5 4.32755C14.4523 4.32755 16.2386 5.05966 17.5955 6.26031C17.4588 6.45553 16.2972 8.00759 13.564 9.03253C12.3048 6.71909 10.9089 4.82538 10.6942 4.53254C11.27 4.39588 11.8753 4.32755 12.5 4.32755ZM9.22996 5.04989C9.43494 5.32321 10.8015 7.22668 12.0803 9.49131C8.48807 10.448 5.31562 10.4284 4.97397 10.4284C5.4718 8.04664 7.08243 6.06507 9.22996 5.04989ZM4.80803 12.0098C4.80803 11.9317 4.80803 11.8536 4.80803 11.7755C5.13991 11.7852 8.86876 11.8341 12.705 10.6822C12.9295 11.1117 13.1345 11.551 13.3297 11.9902C13.2321 12.0195 13.1247 12.0488 13.0271 12.0781C9.06399 13.3568 6.95553 16.8514 6.77983 17.1442C5.55965 15.7874 4.80803 13.9816 4.80803 12.0098ZM12.5 19.692C10.7234 19.692 9.08352 19.0868 7.78525 18.0716C7.92191 17.7885 9.48371 14.782 13.8178 13.269C13.8373 13.2592 13.8471 13.2592 13.8666 13.2495C14.9501 16.051 15.3894 18.4034 15.5065 19.077C14.5792 19.4772 13.564 19.692 12.5 19.692ZM16.7852 18.3742C16.7072 17.9056 16.2972 15.6605 15.2917 12.898C17.7028 12.5173 19.8113 13.1421 20.0749 13.23C19.743 15.3677 18.513 17.2126 16.7852 18.3742Z" fill="#090705"/>
</svg>
