<svg width="49" height="49" viewBox="0 0 49 49" fill="none" xmlns="http://www.w3.org/2000/svg">
<path fill-rule="evenodd" clip-rule="evenodd" d="M41.8429 14.7471L41.5629 14.2471C41.2017 13.6425 40.6923 13.1399 40.0829 12.7871L26.6629 5.04708C26.0553 4.69458 25.3655 4.50832 24.6629 4.50708H24.0829C23.3803 4.50832 22.6905 4.69458 22.0829 5.04708L8.66293 12.8071C8.05687 13.1576 7.55345 13.661 7.20293 14.2671L6.92293 14.7671C6.57043 15.3748 6.38417 16.0646 6.38293 16.7671V32.2671C6.38417 32.9697 6.57043 33.6595 6.92293 34.2671L7.20293 34.7671C7.56251 35.3661 8.06391 35.8675 8.66293 36.2271L22.1029 43.9671C22.7075 44.3269 23.3993 44.5137 24.1029 44.5071H24.6629C25.3655 44.5059 26.0553 44.3197 26.6629 43.9671L40.0829 36.2071C40.6949 35.8645 41.2003 35.3591 41.5429 34.7471L41.8429 34.2471C42.1911 33.6377 42.3771 32.9491 42.3829 32.2471V16.7471C42.3817 16.0446 42.1955 15.3548 41.8429 14.7471ZM24.0829 8.50708H24.6629L36.3829 15.2671L24.3829 22.1871L12.3829 15.2671L24.0829 8.50708ZM26.3829 39.5071L38.0829 32.7471L38.3829 32.2471V18.7271L26.3829 25.6671V39.5071Z" fill="#090705"/>
</svg>
