<svg width="25" height="25" viewBox="0 0 25 25" fill="none" xmlns="http://www.w3.org/2000/svg">
<path fill-rule="evenodd" clip-rule="evenodd" d="M16.3829 3.74951H8.38293C5.62151 3.74951 3.38293 5.98809 3.38293 8.74951V16.7495C3.38293 19.5109 5.62151 21.7495 8.38293 21.7495H16.3829C19.1443 21.7495 21.3829 19.5109 21.3829 16.7495V8.74951C21.3829 5.98809 19.1443 3.74951 16.3829 3.74951ZM19.6329 16.7495C19.6274 18.5421 18.1755 19.994 16.3829 19.9995H8.38293C6.59028 19.994 5.13842 18.5421 5.13293 16.7495V8.74951C5.13842 6.95686 6.59028 5.505 8.38293 5.49951H16.3829C18.1755 5.505 19.6274 6.95686 19.6329 8.74951V16.7495ZM17.1329 8.99951C17.6852 8.99951 18.1329 8.55179 18.1329 7.99951C18.1329 7.44723 17.6852 6.99951 17.1329 6.99951C16.5806 6.99951 16.1329 7.44723 16.1329 7.99951C16.1329 8.55179 16.5806 8.99951 17.1329 8.99951ZM12.3829 8.24951C9.89765 8.24951 7.88293 10.2642 7.88293 12.7495C7.88293 15.2348 9.89765 17.2495 12.3829 17.2495C14.8682 17.2495 16.8829 15.2348 16.8829 12.7495C16.8856 11.5552 16.4123 10.4091 15.5678 9.56459C14.7233 8.7201 13.5772 8.24685 12.3829 8.24951ZM9.63293 12.7495C9.63293 14.2683 10.8641 15.4995 12.3829 15.4995C13.9017 15.4995 15.1329 14.2683 15.1329 12.7495C15.1329 11.2307 13.9017 9.99951 12.3829 9.99951C10.8641 9.99951 9.63293 11.2307 9.63293 12.7495Z" fill="#090705"/>
</svg>
